<?xml version="1.0" encoding="utf-8"?>
<svg xmlns="http://www.w3.org/2000/svg" xmlns:xlink="http://www.w3.org/1999/xlink" style="margin: auto; background: none; display: block; shape-rendering: auto;" width="190px" height="190px" viewBox="0 0 100 100" preserveAspectRatio="xMidYMid">
<g transform="rotate(0 50 50)">
  <rect x="49.5" y="36" rx="0" ry="0" width="1" height="8" fill="#4d81d6">
    <animate attributeName="opacity" values="1;0" keyTimes="0;1" dur="0.7874015748031495s" begin="-0.7349081364829396s" repeatCount="indefinite"></animate>
  </rect>
</g><g transform="rotate(24 50 50)">
  <rect x="49.5" y="36" rx="0" ry="0" width="1" height="8" fill="#4d81d6">
    <animate attributeName="opacity" values="1;0" keyTimes="0;1" dur="0.7874015748031495s" begin="-0.6824146981627296s" repeatCount="indefinite"></animate>
  </rect>
</g><g transform="rotate(48 50 50)">
  <rect x="49.5" y="36" rx="0" ry="0" width="1" height="8" fill="#4d81d6">
    <animate attributeName="opacity" values="1;0" keyTimes="0;1" dur="0.7874015748031495s" begin="-0.6299212598425197s" repeatCount="indefinite"></animate>
  </rect>
</g><g transform="rotate(72 50 50)">
  <rect x="49.5" y="36" rx="0" ry="0" width="1" height="8" fill="#4d81d6">
    <animate attributeName="opacity" values="1;0" keyTimes="0;1" dur="0.7874015748031495s" begin="-0.5774278215223096s" repeatCount="indefinite"></animate>
  </rect>
</g><g transform="rotate(96 50 50)">
  <rect x="49.5" y="36" rx="0" ry="0" width="1" height="8" fill="#4d81d6">
    <animate attributeName="opacity" values="1;0" keyTimes="0;1" dur="0.7874015748031495s" begin="-0.5249343832020997s" repeatCount="indefinite"></animate>
  </rect>
</g><g transform="rotate(120 50 50)">
  <rect x="49.5" y="36" rx="0" ry="0" width="1" height="8" fill="#4d81d6">
    <animate attributeName="opacity" values="1;0" keyTimes="0;1" dur="0.7874015748031495s" begin="-0.47244094488188976s" repeatCount="indefinite"></animate>
  </rect>
</g><g transform="rotate(144 50 50)">
  <rect x="49.5" y="36" rx="0" ry="0" width="1" height="8" fill="#4d81d6">
    <animate attributeName="opacity" values="1;0" keyTimes="0;1" dur="0.7874015748031495s" begin="-0.4199475065616798s" repeatCount="indefinite"></animate>
  </rect>
</g><g transform="rotate(168 50 50)">
  <rect x="49.5" y="36" rx="0" ry="0" width="1" height="8" fill="#4d81d6">
    <animate attributeName="opacity" values="1;0" keyTimes="0;1" dur="0.7874015748031495s" begin="-0.3674540682414698s" repeatCount="indefinite"></animate>
  </rect>
</g><g transform="rotate(192 50 50)">
  <rect x="49.5" y="36" rx="0" ry="0" width="1" height="8" fill="#4d81d6">
    <animate attributeName="opacity" values="1;0" keyTimes="0;1" dur="0.7874015748031495s" begin="-0.31496062992125984s" repeatCount="indefinite"></animate>
  </rect>
</g><g transform="rotate(216 50 50)">
  <rect x="49.5" y="36" rx="0" ry="0" width="1" height="8" fill="#4d81d6">
    <animate attributeName="opacity" values="1;0" keyTimes="0;1" dur="0.7874015748031495s" begin="-0.26246719160104987s" repeatCount="indefinite"></animate>
  </rect>
</g><g transform="rotate(240 50 50)">
  <rect x="49.5" y="36" rx="0" ry="0" width="1" height="8" fill="#4d81d6">
    <animate attributeName="opacity" values="1;0" keyTimes="0;1" dur="0.7874015748031495s" begin="-0.2099737532808399s" repeatCount="indefinite"></animate>
  </rect>
</g><g transform="rotate(264 50 50)">
  <rect x="49.5" y="36" rx="0" ry="0" width="1" height="8" fill="#4d81d6">
    <animate attributeName="opacity" values="1;0" keyTimes="0;1" dur="0.7874015748031495s" begin="-0.15748031496062992s" repeatCount="indefinite"></animate>
  </rect>
</g><g transform="rotate(288 50 50)">
  <rect x="49.5" y="36" rx="0" ry="0" width="1" height="8" fill="#4d81d6">
    <animate attributeName="opacity" values="1;0" keyTimes="0;1" dur="0.7874015748031495s" begin="-0.10498687664041995s" repeatCount="indefinite"></animate>
  </rect>
</g><g transform="rotate(312 50 50)">
  <rect x="49.5" y="36" rx="0" ry="0" width="1" height="8" fill="#4d81d6">
    <animate attributeName="opacity" values="1;0" keyTimes="0;1" dur="0.7874015748031495s" begin="-0.05249343832020997s" repeatCount="indefinite"></animate>
  </rect>
</g><g transform="rotate(336 50 50)">
  <rect x="49.5" y="36" rx="0" ry="0" width="1" height="8" fill="#4d81d6">
    <animate attributeName="opacity" values="1;0" keyTimes="0;1" dur="0.7874015748031495s" begin="0s" repeatCount="indefinite"></animate>
  </rect>
</g>
<!-- [ldio] generated by https://loading.io/ --></svg>